<svg width="24" height="24" viewBox="0 0 24 24" fill="none" xmlns="http://www.w3.org/2000/svg">
<path opacity="0.5" d="M2 12C2 7.286 2 4.929 3.464 3.464C4.93 2 7.286 2 12 2C16.714 2 19.071 2 20.535 3.464C22 4.93 22 7.286 22 12C22 16.714 22 19.071 20.535 20.535C19.072 22 16.714 22 12 22C7.286 22 4.929 22 3.464 20.535C2 19.072 2 16.714 2 12Z" fill="#408E30"/>
<path d="M14.5008 10.75C14.3019 10.75 14.1111 10.671 13.9705 10.5303C13.8298 10.3897 13.7508 10.1989 13.7508 10C13.7508 9.80109 13.8298 9.61032 13.9705 9.46967C14.1111 9.32902 14.3019 9.25 14.5008 9.25H17.0008C17.1997 9.25 17.3905 9.32902 17.5312 9.46967C17.6718 9.61032 17.7508 9.80109 17.7508 10V12.5C17.7508 12.6989 17.6718 12.8897 17.5312 13.0303C17.3905 13.171 17.1997 13.25 17.0008 13.25C16.8019 13.25 16.6111 13.171 16.4705 13.0303C16.3298 12.8897 16.2508 12.6989 16.2508 12.5V11.81L14.2378 13.823C13.9097 14.1509 13.4647 14.3351 13.0008 14.3351C12.5369 14.3351 12.092 14.1509 11.7638 13.823L10.1778 12.237C10.1546 12.2137 10.127 12.1952 10.0966 12.1826C10.0663 12.17 10.0337 12.1636 10.0008 12.1636C9.96794 12.1636 9.93538 12.17 9.90501 12.1826C9.87463 12.1952 9.84705 12.2137 9.82382 12.237L7.53082 14.53C7.38865 14.6625 7.2006 14.7346 7.0063 14.7312C6.812 14.7277 6.62661 14.649 6.4892 14.5116C6.35179 14.3742 6.27308 14.1888 6.26965 13.9945C6.26622 13.8002 6.33834 13.6122 6.47082 13.47L8.76382 11.177C9.09198 10.8491 9.53691 10.6649 10.0008 10.6649C10.4647 10.6649 10.9097 10.8491 11.2378 11.177L12.8238 12.763C12.847 12.7863 12.8746 12.8048 12.905 12.8174C12.9354 12.83 12.9679 12.8364 13.0008 12.8364C13.0337 12.8364 13.0663 12.83 13.0966 12.8174C13.127 12.8048 13.1546 12.7863 13.1778 12.763L15.1898 10.75H14.5008Z" fill="#408E30"/>
</svg>
