<svg width="26" height="24" viewBox="0 0 26 24" fill="none" xmlns="http://www.w3.org/2000/svg">
<path d="M22.8608 19H4.08231C3.80562 19 3.54027 19.1054 3.34462 19.2929C3.14898 19.4804 3.03906 19.7348 3.03906 20C3.03906 20.2652 3.14898 20.5196 3.34462 20.7071C3.54027 20.8946 3.80562 21 4.08231 21H22.8608C23.1374 21 23.4028 20.8946 23.5984 20.7071C23.7941 20.5196 23.904 20.2652 23.904 20C23.904 19.7348 23.7941 19.4804 23.5984 19.2929C23.4028 19.1054 23.1374 19 22.8608 19Z" fill="#2D9CDB"/>
<path d="M13.4708 2C13.1941 2 12.9287 2.10536 12.7331 2.29289C12.5374 2.48043 12.4275 2.73478 12.4275 3V13.59L8.99525 10.29C8.7988 10.1017 8.53236 9.99591 8.25455 9.99591C7.97673 9.99591 7.71029 10.1017 7.51384 10.29C7.31739 10.4783 7.20703 10.7337 7.20703 11C7.20703 11.2663 7.31739 11.5217 7.51384 11.71L12.7301 16.71C12.8271 16.8037 12.9424 16.8781 13.0696 16.9289C13.1967 16.9797 13.3331 17.0058 13.4708 17.0058C13.6085 17.0058 13.7449 16.9797 13.872 16.9289C13.9991 16.8781 14.1145 16.8037 14.2115 16.71L19.4277 11.71C19.525 11.6168 19.6021 11.5061 19.6548 11.3843C19.7074 11.2624 19.7345 11.1319 19.7345 11C19.7345 10.8681 19.7074 10.7376 19.6548 10.6158C19.6021 10.4939 19.525 10.3832 19.4277 10.29C19.3304 10.1968 19.215 10.1228 19.0879 10.0723C18.9608 10.0219 18.8246 9.99591 18.687 9.99591C18.5495 9.99591 18.4132 10.0219 18.2861 10.0723C18.1591 10.1228 18.0436 10.1968 17.9463 10.29L14.514 13.59V3C14.514 2.73478 14.4041 2.48043 14.2085 2.29289C14.0128 2.10536 13.7475 2 13.4708 2V2Z" fill="#2D9CDB"/>
</svg>
