<svg width="50" height="50" viewBox="0 0 50 50" fill="none" xmlns="http://www.w3.org/2000/svg">
<path d="M36.1883 41.3064L42.1049 35.4814L40.8008 34.1752L36.1883 38.7231L34.1987 36.6918L32.8924 38.0085L36.1883 41.3064ZM14.1029 18.1897H35.8987V16.1064H14.1008L14.1029 18.1897ZM37.4987 46.0752C35.1779 46.0752 33.2091 45.2661 31.5924 43.6481C29.9744 42.0314 29.1654 40.0627 29.1654 37.7418C29.1654 35.421 29.9744 33.4515 31.5924 31.8335C33.2105 30.2154 35.1793 29.4071 37.4987 29.4085C39.8181 29.4099 41.7876 30.2182 43.407 31.8335C45.0265 33.4488 45.8348 35.4182 45.832 37.7418C45.832 40.0613 45.0237 42.03 43.407 43.6481C41.7876 45.2661 39.8181 46.0752 37.4987 46.0752ZM8.33203 43.2689V11.7002C8.33203 10.7668 8.65981 9.97239 9.31536 9.31683C9.97092 8.66127 10.7654 8.3335 11.6987 8.3335H38.3008C39.2313 8.3335 40.0251 8.66127 40.682 9.31683C41.3376 9.97239 41.6654 10.7668 41.6654 11.7002V24.0835C40.4265 23.6766 39.157 23.4675 37.857 23.4564C36.557 23.4453 35.2758 23.6127 34.0133 23.9585H14.1008V26.0418H29.3341C28.2897 26.7654 27.3688 27.6147 26.5716 28.5897C25.7744 29.5647 25.1174 30.6384 24.6008 31.8106H14.1029V33.8939H23.9154C23.7654 34.455 23.6487 35.021 23.5654 35.5918C23.482 36.1627 23.4397 36.7585 23.4383 37.3793C23.4383 38.3307 23.5376 39.2745 23.7362 40.2106C23.9348 41.1467 24.2334 42.0488 24.632 42.9168L24.5612 42.9877L22.1966 41.2668L19.3924 43.2689L16.5883 41.2668L13.7841 43.2689L10.9779 41.2668L8.33203 43.2689Z" fill="#5A9D4D"/>
</svg>
