<svg width="144" height="58" viewBox="0 0 144 58" fill="none" xmlns="http://www.w3.org/2000/svg">
<g filter="url(#filter0_d_318_3380)">
<path d="M7.14527 17.0665C10.6411 16.3944 18.2495 14.3561 20.7171 11.5796C23.8015 8.10909 25.1316 3.78437 29.315 2.05835C33.4983 0.332337 37.3158 10.2542 38.7618 15.1243C40.2078 19.9943 46.0108 24.7011 48.3242 25.1556C50.6376 25.61 55.7848 18.9777 58.5801 16.9791C61.3754 14.9804 64.9805 16.1981 65.5203 18.3424C66.0602 20.4867 69.1258 31.7895 73.7527 32.6984C78.3795 33.6073 78.5915 30.082 89.1944 25.0311C99.7974 19.9801 99.6243 30.6467 101.976 38.2426C104.329 45.8384 109.36 42.2408 115.625 34.809C121.891 27.3773 126.98 28.3771 130.759 31.1576C133.782 33.382 135.977 39.6561 136.697 42.5151" stroke="#D33842" stroke-width="2"/>
</g>
<defs>
<filter id="filter0_d_318_3380" x="0.957031" y="0.85791" width="142.711" height="56.6006" filterUnits="userSpaceOnUse" color-interpolation-filters="sRGB">
<feFlood flood-opacity="0" result="BackgroundImageFix"/>
<feColorMatrix in="SourceAlpha" type="matrix" values="0 0 0 0 0 0 0 0 0 0 0 0 0 0 0 0 0 0 127 0" result="hardAlpha"/>
<feOffset dy="8"/>
<feGaussianBlur stdDeviation="3"/>
<feComposite in2="hardAlpha" operator="out"/>
<feColorMatrix type="matrix" values="0 0 0 0 0 0 0 0 0 0 0 0 0 0 0 0 0 0 0.25 0"/>
<feBlend mode="normal" in2="BackgroundImageFix" result="effect1_dropShadow_318_3380"/>
<feBlend mode="normal" in="SourceGraphic" in2="effect1_dropShadow_318_3380" result="shape"/>
</filter>
</defs>
</svg>
