<svg width="50" height="50" viewBox="0 0 50 50" fill="none" xmlns="http://www.w3.org/2000/svg">
<path opacity="0.3" d="M25 11.4585L37.5 20.8335V39.5835H12.5V20.8335L25 11.4585ZM23.9583 19.7918V26.0418H22.9167V19.7918H20.8333V26.0418H19.7917V19.7918H17.7083V26.0418C17.7083 27.771 19.1042 29.1668 20.8333 29.1668V37.5002H22.9167V29.1668C24.6458 29.1668 26.0417 27.771 26.0417 26.0418V19.7918H23.9583ZM27.0833 23.9585V30.2085H29.1667V37.5002H31.25V19.7918C28.9583 19.7918 27.0833 21.6668 27.0833 23.9585Z" fill="#A68100"/>
<path d="M24.9987 11.4583L37.4987 20.8333V39.5833H12.4987V20.8333L24.9987 11.4583ZM24.9987 6.25L8.33203 18.75V43.75H41.6654V18.75L24.9987 6.25ZM23.957 19.7917V26.0417H22.9154V19.7917H20.832V26.0417H19.7904V19.7917H17.707V26.0417C17.707 27.7708 19.1029 29.1667 20.832 29.1667V37.5H22.9154V29.1667C24.6445 29.1667 26.0404 27.7708 26.0404 26.0417V19.7917H23.957ZM27.082 23.9583V30.2083H29.1654V37.5H31.2487V19.7917C28.957 19.7917 27.082 21.6667 27.082 23.9583Z" fill="#A68100"/>
</svg>
