<svg width="50" height="49" viewBox="0 0 50 49" fill="none" xmlns="http://www.w3.org/2000/svg">
<path d="M10.1914 19.4034C10.1914 18.592 10.8643 17.9341 11.6956 17.9341H19.7289C20.5623 17.9341 21.2352 18.592 21.2352 19.4034C21.236 19.5958 21.1977 19.7865 21.1224 19.9645C21.0472 20.1426 20.9365 20.3046 20.7966 20.4412C20.6567 20.5778 20.4904 20.6864 20.3073 20.7608C20.1241 20.8352 19.9275 20.8738 19.7289 20.8746H11.6956C11.2948 20.8725 10.9113 20.7164 10.6293 20.4405C10.3472 20.1646 10.1898 19.7916 10.1914 19.4034Z" fill="#0E3EEA"/>
<path fill-rule="evenodd" clip-rule="evenodd" d="M44.143 20.1905C44.0124 20.1838 43.8735 20.1811 43.7263 20.1825H37.9492C33.218 20.1825 29.168 23.6861 29.168 28.2554C29.168 32.8247 33.218 36.3283 37.9492 36.3283H43.7263C43.8735 36.3296 44.0124 36.327 44.143 36.3202C46.0659 36.2072 47.7659 34.7924 47.9096 32.8146C47.918 32.6854 47.918 32.5461 47.918 32.417V24.0938C47.918 23.9646 47.918 23.8254 47.9096 23.6962C47.7659 21.7183 46.0659 20.3056 44.143 20.1905ZM37.4409 30.4088C38.6576 30.4088 39.6451 29.4441 39.6451 28.2554C39.6451 27.0646 38.6576 26.1019 37.4409 26.1019C36.2242 26.1019 35.2326 27.0666 35.2326 28.2554C35.2326 29.4461 36.2221 30.4088 37.4409 30.4088Z" fill="#0E3EEA"/>
<path opacity="0.5" d="M44.043 20.1865C44.043 17.803 43.9513 15.2459 42.3805 13.4153C42.2264 13.2364 42.0645 13.064 41.8951 12.8987C40.3346 11.389 38.3576 10.719 35.9159 10.4001C33.5409 10.0913 30.5096 10.0913 26.6805 10.0913H22.2805C18.4513 10.0913 15.418 10.0913 13.043 10.4001C10.6013 10.719 8.62422 11.389 7.0638 12.8987C5.50547 14.4103 4.8138 16.3256 4.48464 18.691C4.16797 20.9918 4.16797 23.9283 4.16797 27.6378V27.8638C4.16797 31.5733 4.16797 34.5119 4.48672 36.8106C4.81589 39.176 5.50755 41.0913 7.06589 42.603C8.6263 44.1126 10.6034 44.7826 13.0451 45.1015C15.4201 45.4103 18.4513 45.4103 22.2805 45.4103H26.6805C30.5096 45.4103 33.543 45.4103 35.9159 45.1015C38.3576 44.7826 40.3346 44.1126 41.8951 42.603C42.3187 42.1885 42.6839 41.7445 42.9909 41.2709C43.9284 39.8178 44.0409 38.0377 44.0409 36.3263L43.7284 36.3283H37.9492C33.218 36.3283 29.168 32.8246 29.168 28.2554C29.168 23.6861 33.218 20.1825 37.9492 20.1825H43.7263C43.836 20.1825 43.943 20.1838 44.043 20.1865Z" fill="#0E3EEA"/>
<path d="M21.0422 5.19088L16.6651 8.05677L13.0547 10.3979C15.4255 10.0911 18.4547 10.0911 22.2776 10.0911H26.6776C30.5068 10.0911 33.5401 10.0911 35.913 10.3999C36.3908 10.4605 36.8505 10.5372 37.2922 10.63L33.3318 8.07291L28.9297 5.19088C27.7611 4.43848 26.3891 4.03711 24.9859 4.03711C23.5828 4.03711 22.2108 4.43848 21.0422 5.19088Z" fill="#0E3EEA"/>
</svg>
