<svg width="24" height="24" viewBox="0 0 24 24" fill="none" xmlns="http://www.w3.org/2000/svg">
<path opacity="0.5" d="M22 12C22 16.714 22 19.071 20.536 20.536C19.07 22 16.714 22 12 22C7.286 22 4.929 22 3.465 20.536C2 19.07 2 16.714 2 12C2 7.286 2 4.929 3.465 3.465C4.928 2 7.286 2 12 2C16.714 2 19.071 2 20.536 3.465C22 4.928 22 7.286 22 12Z" fill="#FF6347"/>
<path d="M9.49918 13.25C9.69809 13.25 9.88885 13.329 10.0295 13.4697C10.1702 13.6103 10.2492 13.8011 10.2492 14C10.2492 14.1989 10.1702 14.3897 10.0295 14.5303C9.88885 14.671 9.69809 14.75 9.49918 14.75L6.99918 14.75C6.80026 14.75 6.6095 14.671 6.46885 14.5303C6.32819 14.3897 6.24918 14.1989 6.24918 14L6.24918 11.5C6.24918 11.3011 6.32819 11.1103 6.46885 10.9697C6.6095 10.829 6.80026 10.75 6.99918 10.75C7.19809 10.75 7.38885 10.829 7.52951 10.9697C7.67016 11.1103 7.74918 11.3011 7.74918 11.5V12.19L9.76218 10.177C10.0903 9.84908 10.5353 9.66487 10.9992 9.66487C11.4631 9.66487 11.908 9.84908 12.2362 10.177L13.8222 11.763C13.8454 11.7863 13.873 11.8048 13.9034 11.8174C13.9337 11.83 13.9663 11.8364 13.9992 11.8364C14.0321 11.8364 14.0646 11.83 14.095 11.8174C14.1254 11.8048 14.153 11.7863 14.1762 11.763L16.4692 9.47C16.6114 9.33752 16.7994 9.2654 16.9937 9.26882C17.188 9.27225 17.3734 9.35097 17.5108 9.48838C17.6482 9.62579 17.7269 9.81118 17.7304 10.0055C17.7338 10.1998 17.6617 10.3878 17.5292 10.53L15.2362 12.823C14.908 13.1509 14.4631 13.3351 13.9992 13.3351C13.5353 13.3351 13.0903 13.1509 12.7622 12.823L11.1762 11.237C11.153 11.2137 11.1254 11.1952 11.095 11.1826C11.0646 11.17 11.0321 11.1636 10.9992 11.1636C10.9663 11.1636 10.9337 11.17 10.9034 11.1826C10.873 11.1952 10.8454 11.2137 10.8222 11.237L8.81018 13.25H9.49918Z" fill="#FF6347"/>
</svg>
