<svg width="50" height="50" viewBox="0 0 50 50" fill="none" xmlns="http://www.w3.org/2000/svg">
<path opacity="0.2" d="M32.8125 28.125C32.8125 29.6702 32.3543 31.1806 31.4959 32.4654C30.6374 33.7502 29.4173 34.7515 27.9897 35.3428C26.5622 35.9341 24.9913 36.0888 23.4759 35.7874C21.9604 35.4859 20.5683 34.7419 19.4757 33.6493C18.3831 32.5567 17.6391 31.1646 17.3376 29.6491C17.0362 28.1337 17.1909 26.5628 17.7822 25.1353C18.3735 23.7077 19.3749 22.4876 20.6596 21.6291C21.9444 20.7707 23.4548 20.3125 25 20.3125C27.072 20.3125 29.0591 21.1356 30.5243 22.6007C31.9894 24.0659 32.8125 26.053 32.8125 28.125ZM12.5 10.9375C11.2639 10.9375 10.0555 11.3041 9.02769 11.9908C7.99988 12.6776 7.1988 13.6537 6.72576 14.7957C6.25271 15.9378 6.12894 17.1944 6.37009 18.4068C6.61125 19.6192 7.20651 20.7328 8.08058 21.6069C8.95466 22.481 10.0683 23.0763 11.2807 23.3174C12.4931 23.5586 13.7497 23.4348 14.8918 22.9617C16.0338 22.4887 17.0099 21.6876 17.6967 20.6598C18.3834 19.632 18.75 18.4236 18.75 17.1875C18.75 15.5299 18.0915 13.9402 16.9194 12.7681C15.7473 11.596 14.1576 10.9375 12.5 10.9375ZM37.5 10.9375C36.2639 10.9375 35.0555 11.3041 34.0277 11.9908C32.9999 12.6776 32.1988 13.6537 31.7258 14.7957C31.2527 15.9378 31.1289 17.1944 31.3701 18.4068C31.6113 19.6192 32.2065 20.7328 33.0806 21.6069C33.9547 22.481 35.0683 23.0763 36.2807 23.3174C37.4931 23.5586 38.7497 23.4348 39.8918 22.9617C41.0338 22.4887 42.0099 21.6876 42.6967 20.6598C43.3834 19.632 43.75 18.4236 43.75 17.1875C43.75 15.5299 43.0915 13.9402 41.9194 12.7681C40.7473 11.596 39.1576 10.9375 37.5 10.9375Z" fill="#B700BB"/>
<path d="M47.8131 29.3748C47.6489 29.4979 47.4621 29.5875 47.2634 29.6384C47.0646 29.6893 46.8577 29.7006 46.6546 29.6716C46.4515 29.6426 46.2561 29.5738 46.0795 29.4693C45.9029 29.3647 45.7487 29.2264 45.6256 29.0623C44.6838 27.7964 43.458 26.7693 42.0468 26.0637C40.6355 25.3581 39.0784 24.9937 37.5006 24.9998C37.0862 24.9998 36.6888 24.8352 36.3957 24.5421C36.1027 24.2491 35.9381 23.8517 35.9381 23.4373C35.9381 23.0229 36.1027 22.6255 36.3957 22.3324C36.6888 22.0394 37.0862 21.8748 37.5006 21.8748C38.3773 21.8747 39.2364 21.6288 39.9803 21.1649C40.7243 20.701 41.3232 20.0378 41.7091 19.2506C42.095 18.4634 42.2524 17.5838 42.1635 16.7116C42.0745 15.8394 41.7427 15.0097 41.2058 14.3166C40.6689 13.6235 39.9484 13.0949 39.1262 12.7908C38.3039 12.4867 37.4128 12.4193 36.5542 12.5962C35.6955 12.7732 34.9037 13.1874 34.2686 13.7918C33.6335 14.3962 33.1807 15.1665 32.9615 16.0154C32.9102 16.2142 32.8203 16.4009 32.6968 16.5649C32.5734 16.7289 32.4188 16.867 32.242 16.9713C32.0651 17.0756 31.8695 17.144 31.6662 17.1727C31.4629 17.2014 31.256 17.1897 31.0572 17.1385C30.8584 17.0872 30.6717 16.9972 30.5077 16.8737C30.3437 16.7503 30.2056 16.5957 30.1013 16.4189C29.997 16.2421 29.9286 16.0464 29.8999 15.8431C29.8712 15.6399 29.8829 15.4329 29.9342 15.2342C30.2384 14.057 30.8131 12.9672 31.6127 12.0512C32.4122 11.1353 33.4145 10.4187 34.5397 9.95828C35.665 9.49788 36.8822 9.30646 38.0944 9.39925C39.3067 9.49204 40.4805 9.86648 41.5226 10.4928C42.5647 11.1191 43.4462 11.9799 44.097 13.0068C44.7479 14.0338 45.15 15.1984 45.2715 16.4081C45.3931 17.6178 45.2306 18.8392 44.797 19.9751C44.3634 21.1109 43.6707 22.1299 42.774 22.951C44.8987 23.8709 46.7456 25.3307 48.1314 27.1853C48.2546 27.3499 48.344 27.5371 48.3946 27.7363C48.4453 27.9355 48.4561 28.1427 48.4265 28.3461C48.3969 28.5495 48.3275 28.745 48.2223 28.9215C48.117 29.0981 47.978 29.2521 47.8131 29.3748ZM37.2896 41.406C37.3987 41.5839 37.4711 41.7818 37.5024 41.9881C37.5338 42.1944 37.5235 42.4049 37.4722 42.6071C37.4209 42.8093 37.3296 42.9993 37.2037 43.1657C37.0778 43.3321 36.9199 43.4715 36.7392 43.5759C36.5585 43.6803 36.3588 43.7474 36.1517 43.7733C35.9447 43.7992 35.7346 43.7834 35.5337 43.7268C35.3329 43.6702 35.1455 43.5739 34.9824 43.4437C34.8194 43.3135 34.6841 43.1519 34.5846 42.9685C33.6002 41.3023 32.1984 39.9215 30.5176 38.9623C28.8367 38.0031 26.9349 37.4986 24.9996 37.4986C23.0643 37.4986 21.1625 38.0031 19.4816 38.9623C17.8008 39.9215 16.3991 41.3023 15.4146 42.9685C15.317 43.1553 15.1825 43.3203 15.0194 43.4537C14.8563 43.5871 14.6679 43.6862 14.4655 43.7449C14.2631 43.8036 14.0509 43.8208 13.8417 43.7954C13.6325 43.77 13.4306 43.7025 13.2482 43.597C13.0658 43.4916 12.9065 43.3503 12.7801 43.1817C12.6537 43.0131 12.5626 42.8207 12.5125 42.616C12.4624 42.4113 12.4542 42.1986 12.4884 41.9907C12.5226 41.7827 12.5985 41.5839 12.7115 41.406C14.2264 38.8032 16.5361 36.755 19.3014 35.5623C17.7454 34.3709 16.6018 32.722 16.0314 30.8471C15.4611 28.9722 15.4926 26.9658 16.1215 25.1097C16.7504 23.2537 17.9452 21.6414 19.5378 20.4995C21.1305 19.3576 23.0409 18.7435 25.0006 18.7435C26.9603 18.7435 28.8707 19.3576 30.4633 20.4995C32.056 21.6414 33.2507 23.2537 33.8797 25.1097C34.5086 26.9658 34.5401 28.9722 33.9697 30.8471C33.3994 32.722 32.2558 34.3709 30.6998 35.5623C33.4651 36.755 35.7748 38.8032 37.2896 41.406ZM25.0006 34.3748C26.2367 34.3748 27.4451 34.0082 28.4729 33.3215C29.5007 32.6347 30.3018 31.6586 30.7748 30.5165C31.2479 29.3745 31.3717 28.1178 31.1305 26.9055C30.8893 25.6931 30.2941 24.5794 29.42 23.7054C28.5459 22.8313 27.4323 22.236 26.2199 21.9949C25.0075 21.7537 23.7509 21.8775 22.6088 22.3505C21.4668 22.8236 20.4907 23.6247 19.8039 24.6525C19.1171 25.6803 18.7506 26.8886 18.7506 28.1248C18.7506 29.7824 19.4091 31.3721 20.5812 32.5442C21.7533 33.7163 23.343 34.3748 25.0006 34.3748ZM14.0631 23.4373C14.0631 23.0229 13.8985 22.6255 13.6054 22.3324C13.3124 22.0394 12.915 21.8748 12.5006 21.8748C11.6239 21.8747 10.7648 21.6288 10.0208 21.1649C9.2769 20.701 8.67797 20.0378 8.29205 19.2506C7.90614 18.4634 7.74873 17.5838 7.83769 16.7116C7.92666 15.8394 8.25843 15.0097 8.79533 14.3166C9.33223 13.6235 10.0527 13.0949 10.875 12.7908C11.6973 12.4867 12.5883 12.4193 13.447 12.5962C14.3057 12.7732 15.0975 13.1874 15.7326 13.7918C16.3676 14.3962 16.8205 15.1665 17.0396 16.0154C17.1432 16.4169 17.4021 16.7607 17.7592 16.9713C18.1163 17.1819 18.5425 17.2421 18.9439 17.1385C19.3454 17.0348 19.6892 16.776 19.8999 16.4189C20.1105 16.0618 20.1706 15.6356 20.067 15.2342C19.7628 14.057 19.188 12.9672 18.3885 12.0512C17.589 11.1353 16.5867 10.4187 15.4614 9.95828C14.3362 9.49788 13.119 9.30646 11.9068 9.39925C10.6945 9.49204 9.52064 9.86648 8.47857 10.4928C7.43649 11.1191 6.55497 11.9799 5.90414 13.0068C5.25331 14.0338 4.85114 15.1984 4.72963 16.4081C4.60811 17.6178 4.77061 18.8392 5.20419 19.9751C5.63777 21.1109 6.33046 22.1299 7.22715 22.951C5.10466 23.8717 3.25979 25.3315 1.87559 27.1853C1.75234 27.3495 1.66264 27.5363 1.6116 27.7351C1.56055 27.9339 1.54917 28.1409 1.5781 28.3441C1.60703 28.5473 1.6757 28.7428 1.78019 28.9195C1.88469 29.0962 2.02296 29.2506 2.18711 29.3738C2.35126 29.497 2.53808 29.5867 2.7369 29.6378C2.93572 29.6888 3.14265 29.7002 3.34587 29.6713C3.54909 29.6424 3.74462 29.5737 3.9213 29.4692C4.09798 29.3647 4.25234 29.2264 4.37559 29.0623C5.31736 27.7964 6.54319 26.7693 7.95441 26.0637C9.36563 25.3581 10.9228 24.9937 12.5006 24.9998C12.915 24.9998 13.3124 24.8352 13.6054 24.5421C13.8985 24.2491 14.0631 23.8517 14.0631 23.4373Z" fill="#B700BB"/>
</svg>
