<svg width="11" height="8" viewBox="0 0 11 8" fill="none" xmlns="http://www.w3.org/2000/svg">
<path d="M5.67225 7.55069L1.13268 2.10321C1.01376 1.96043 0.937992 1.78672 0.914258 1.60243C0.890524 1.41814 0.919805 1.2309 0.998671 1.06265C1.07754 0.894407 1.20272 0.752122 1.35955 0.652471C1.51638 0.55282 1.69837 0.49993 1.88418 0.5H9.92954C10.1152 0.500162 10.2971 0.55322 10.4537 0.652962C10.6104 0.752705 10.7354 0.895004 10.8141 1.06321C10.8928 1.23141 10.922 1.41855 10.8982 1.60273C10.8744 1.78691 10.7987 1.96051 10.6798 2.10321L6.14148 7.55069C6.11281 7.58507 6.07693 7.61272 6.03639 7.63171C5.99585 7.65069 5.95163 7.66052 5.90686 7.66052C5.8621 7.66052 5.81788 7.65069 5.77733 7.63171C5.73679 7.61272 5.70092 7.58507 5.67225 7.55069Z" fill="white"/>
</svg>
