<svg width="26" height="31" viewBox="0 0 26 31" fill="none" xmlns="http://www.w3.org/2000/svg">
<path d="M25.75 7.20802C25.75 9.94218 23.5258 12.1664 20.7917 12.1664C18.0575 12.1664 15.8333 9.94218 15.8333 7.20802C15.8333 4.47385 18.0575 2.24968 20.7917 2.24968C23.5258 2.24968 25.75 4.47385 25.75 7.20802ZM22.9167 14.7022C22.2083 14.8863 21.5 14.9997 20.7917 14.9997C18.7263 14.9959 16.7467 14.1738 15.2863 12.7134C13.8259 11.253 13.0037 9.27334 13 7.20802C13 5.12552 13.8217 3.24135 15.125 1.83885C14.8679 1.5237 14.5437 1.26987 14.1761 1.09587C13.8085 0.921866 13.4067 0.832066 13 0.833015C11.4417 0.833015 10.1667 2.10802 10.1667 3.66635V4.07718C5.95917 5.32385 3.08333 9.19135 3.08333 13.583V22.083L0.25 24.9164V26.333H25.75V24.9164L22.9167 22.083V14.7022ZM13 30.583C14.5725 30.583 15.8333 29.3222 15.8333 27.7497H10.1667C10.1667 28.5011 10.4652 29.2218 10.9965 29.7532C11.5279 30.2845 12.2486 30.583 13 30.583Z" fill="white"/>
</svg>
